# xmcd CD database file
#
# Track frame offsets:
#	150
#	12139
#	28037
#	50780
#	67755
#	89146
#	101727
#	125412
#	140021
#	163646
#	182392
#	204873
#	223594
#	236955
#	256118
#	279902
#	296128
#
# Disc length: 4210 seconds
#
# Revision: 4
# Processed by: cddbd v1.5.2PL0 Copyright (c) Steve Scherf et al.
# Submitted via: CDex 1.70
#
DISCID=f9107011
DTITLE=Various Artist - Reprise ! When Jazz Meets Pop
DYEAR=2005
DGENRE=Jazz
TTITLE0=Bobby McFerrin - Drive My Car
TTITLE1=Jamie Cullum - The Wind Cries Mary
TTITLE2=Martin Taylor - Johnny and Mary
TTITLE3=Petra Magoni and Ferruccio Spinetti - I Will Survive
TTITLE4=Senor Coconut - Smoke On The Water
TTITLE5=Giovanni Mirabassi - A Sim Bonanga
TTITLE6=Nancy Wilson - Ode To Billie Joe
TTITLE7=Joshua Redman - Tears In Heaven
TTITLE8=Lisa Bassenge - Like A Virgin
TTITLE9=Larry Schneider - Tom's Dinner
TTITLE10=Herbie Hancock - All Apologies
TTITLE11=Patricia Barber - She's A Lady
TTITLE12=Wes Montgomery - Say A Little Prayer
TTITLE13=Etta Jones - Unchained Melody
TTITLE14=Doug Wamble - Walking On The Moon
TTITLE15=Cecilia Norby - Life On Mars
TTITLE16=Brad Meldhau - Exit Music (For A Film)
EXTD=YEAR: 2005
EXTT0=
EXTT1=
EXTT2=
EXTT3=
EXTT4=
EXTT5=
EXTT6=
EXTT7=
EXTT8=
EXTT9=
EXTT10=
EXTT11=
EXTT12=
EXTT13=
EXTT14=
EXTT15=
EXTT16=
PLAYORDER=
